# This file uses centimeters as units for non-parametric coordinates.

mtllib screw.mtl
g default
v 0.951057 -0.003107 -0.309017
v 0.809018 -0.003107 -0.587786
v 0.587786 -0.003107 -0.809017
v 0.309017 -0.003107 -0.951057
v 0.000000 -0.003107 -1.000000
v -0.309017 -0.003107 -0.951057
v -0.587785 -0.003107 -0.809017
v -0.809017 -0.003107 -0.587785
v -0.951057 -0.003107 -0.309017
v -1.000000 -0.003107 0.000000
v -0.951057 -0.003107 0.309017
v -0.809017 -0.003107 0.587785
v -0.587785 -0.003107 0.809017
v -0.309017 -0.003107 0.951057
v -0.000000 -0.003107 1.000000
v 0.309017 -0.003107 0.951057
v 0.587785 -0.003107 0.809017
v 0.809017 -0.003107 0.587785
v 0.951057 -0.003107 0.309017
v 1.000000 -0.003107 0.000000
v 0.939348 0.074754 -0.305213
v 0.799057 0.074754 -0.580549
v 0.580549 0.074754 -0.799057
v 0.305213 0.074754 -0.939348
v 0.000000 0.074754 -0.987689
v -0.305213 0.074754 -0.939348
v -0.580549 0.074754 -0.799057
v -0.799057 0.074754 -0.580549
v -0.939348 0.074754 -0.305213
v -0.987689 0.074754 0.000000
v -0.939348 0.074754 0.305213
v -0.799057 0.074754 0.580549
v -0.580549 0.074754 0.799057
v -0.305213 0.074754 0.939348
v -0.000000 0.074754 0.987688
v 0.305212 0.074754 0.939348
v 0.580549 0.074754 0.799057
v 0.799057 0.074754 0.580549
v 0.939348 0.074754 0.305212
v 0.987688 0.074754 0.000000
v 0.847398 0.216943 -0.275336
v 0.720840 0.216943 -0.523721
v 0.523721 0.216943 -0.720840
v 0.275336 0.216943 -0.847398
v 0.000000 0.216943 -0.891007
v -0.275336 0.216943 -0.847398
v -0.523721 0.216943 -0.720840
v -0.720840 0.216943 -0.523721
v -0.847398 0.216943 -0.275336
v -0.891007 0.216943 0.000000
v -0.847398 0.216943 0.275336
v -0.720840 0.216943 0.523721
v -0.523721 0.216943 0.720840
v -0.275336 0.216943 0.847398
v -0.000000 0.216943 0.891007
v 0.275336 0.216943 0.847398
v 0.523721 0.216943 0.720840
v 0.720839 0.216943 0.523721
v 0.847398 0.216943 0.275336
v 0.891007 0.216943 0.000000
v 0.672499 0.319274 -0.218508
v 0.572062 0.319274 -0.415627
v 0.415627 0.319274 -0.572062
v 0.218508 0.319274 -0.672499
v 0.000000 0.319274 -0.707107
v -0.218508 0.319274 -0.672499
v -0.415627 0.319274 -0.572062
v -0.572062 0.319274 -0.415627
v -0.672499 0.319274 -0.218508
v -0.707107 0.319274 0.000000
v -0.672499 0.319274 0.218508
v -0.572062 0.319274 0.415627
v -0.415627 0.319274 0.572061
v -0.218508 0.319274 0.672499
v -0.000000 0.319274 0.707107
v 0.218508 0.319274 0.672499
v 0.415627 0.319274 0.572061
v 0.572061 0.319274 0.415627
v 0.672499 0.319274 0.218508
v 0.707107 0.319274 0.000000
v 0.000000 0.319274 0.000000
v 0.000000 -0.003107 -0.286887
v -0.088653 -0.003107 -0.272846
v -0.168628 -0.003107 -0.232097
v -0.232097 -0.003107 -0.168628
v -0.272846 -0.003107 -0.088653
v -0.286887 -0.003107 0.000000
v -0.272846 -0.003107 0.088653
v -0.232097 -0.003107 0.168628
v -0.168628 -0.003107 0.232096
v -0.088653 -0.003107 0.272846
v -0.000000 -0.003107 0.286887
v 0.088653 -0.003107 0.272846
v 0.168628 -0.003107 0.232096
v 0.232096 -0.003107 0.168628
v 0.272846 -0.003107 0.088653
v 0.286887 -0.003107 0.000000
v 0.272846 -0.003107 -0.088653
v 0.232097 -0.003107 -0.168628
v 0.168628 -0.003107 -0.232097
v 0.088653 -0.003107 -0.272846
v 0.184760 -1.153838 -0.060032
v 0.157166 -1.153838 -0.114188
v 0.114188 -1.153838 -0.157166
v 0.060032 -1.153838 -0.184760
v -0.000000 -1.153838 -0.194268
v -0.060032 -1.153838 -0.184760
v -0.114188 -1.153838 -0.157166
v -0.157166 -1.153838 -0.114188
v -0.184759 -1.153838 -0.060032
v -0.194268 -1.153838 -0.000000
v -0.184759 -1.153838 0.060032
v -0.157166 -1.153838 0.114188
v -0.114188 -1.153838 0.157166
v -0.060032 -1.153838 0.184759
v -0.000000 -1.153838 0.194268
v 0.060032 -1.153838 0.184759
v 0.114188 -1.153838 0.157166
v 0.157166 -1.153838 0.114188
v 0.184759 -1.153838 0.060032
v 0.194268 -1.153838 -0.000000
v 0.000000 -2.030464 0.000000
vt 0.048206 0.189232
vt 0.078817 0.189232
vt 0.109428 0.189232
vt 0.140039 0.189232
vt 0.170650 0.189232
vt 0.201261 0.189232
vt 0.231873 0.189232
vt 0.262484 0.189232
vt 0.293095 0.189232
vt 0.323706 0.189232
vt 0.354317 0.189232
vt 0.384928 0.189232
vt 0.415540 0.189232
vt 0.446151 0.189232
vt 0.476762 0.189232
vt 0.507373 0.189232
vt 0.537984 0.189232
vt 0.568596 0.189232
vt 0.599207 0.189232
vt 0.629818 0.189232
vt 0.660429 0.189232
vt 0.048206 0.219843
vt 0.078817 0.219843
vt 0.109428 0.219843
vt 0.140039 0.219843
vt 0.170650 0.219843
vt 0.201261 0.219843
vt 0.231873 0.219843
vt 0.262484 0.219843
vt 0.293095 0.219843
vt 0.323706 0.219843
vt 0.354317 0.219843
vt 0.384928 0.219843
vt 0.415540 0.219843
vt 0.446151 0.219843
vt 0.476762 0.219843
vt 0.507373 0.219843
vt 0.537984 0.219843
vt 0.568596 0.219843
vt 0.599207 0.219843
vt 0.629818 0.219843
vt 0.660429 0.219843
vt 0.048206 0.281065
vt 0.078817 0.281065
vt 0.109428 0.281065
vt 0.140039 0.281065
vt 0.170650 0.281065
vt 0.201261 0.281065
vt 0.231873 0.281065
vt 0.262484 0.281065
vt 0.293095 0.281065
vt 0.323706 0.281065
vt 0.354317 0.281065
vt 0.384928 0.281065
vt 0.415540 0.281065
vt 0.446151 0.281065
vt 0.476762 0.281065
vt 0.507373 0.281065
vt 0.537984 0.281065
vt 0.568596 0.281065
vt 0.599207 0.281065
vt 0.629818 0.281065
vt 0.660429 0.281065
vt 0.446890 0.565080
vt 0.486331 0.508895
vt 0.541204 0.467648
vt 0.606138 0.445376
vt 0.674775 0.444260
vt 0.740399 0.464409
vt 0.796584 0.503850
vt 0.837831 0.558723
vt 0.860102 0.623657
vt 0.861218 0.692294
vt 0.841070 0.757917
vt 0.801628 0.814102
vt 0.746755 0.855350
vt 0.681822 0.877621
vt 0.613184 0.878737
vt 0.547561 0.858589
vt 0.491376 0.819147
vt 0.450129 0.764274
vt 0.427858 0.699341
vt 0.426742 0.630703
vt 0.660429 0.342288
vt 0.643980 0.661499
vt 0.277647 0.189232
vt 0.286925 0.189232
vt 0.296197 0.189232
vt 0.305454 0.189232
vt 0.314676 0.189232
vt 0.323812 0.189232
vt 0.332740 0.189232
vt 0.342538 0.189232
vt 0.351876 0.189232
vt 0.361111 0.189232
vt 0.370276 0.189232
vt 0.379278 0.189232
vt 0.387882 0.189232
vt 0.395531 0.189232
vt 0.400877 0.189232
vt 0.400673 0.189232
vt 0.387099 0.189232
vt 0.309458 0.189232
vt 0.259084 0.189232
vt 0.268366 0.189232
vt 0.104896 0.456634
vt 0.117223 0.458704
vt 0.054976 0.829420
vt 0.042730 0.827331
vt 0.129550 0.460773
vt 0.067304 0.831490
vt 0.141878 0.462843
vt 0.079631 0.833560
vt 0.154205 0.464913
vt 0.091958 0.835630
vt 0.166533 0.466983
vt 0.104286 0.837700
vt 0.178860 0.469053
vt 0.116613 0.839770
vt 0.191188 0.471123
vt 0.128941 0.841839
vt 0.203515 0.473193
vt 0.141268 0.843909
vt 0.215842 0.475263
vt 0.153595 0.845980
vt 0.228170 0.477332
vt 0.165922 0.848054
vt 0.240497 0.479402
vt 0.178251 0.850115
vt 0.252825 0.481472
vt 0.190578 0.852189
vt 0.265152 0.483542
vt 0.202905 0.854259
vt 0.277479 0.485612
vt 0.215233 0.856329
vt 0.289807 0.487682
vt 0.227560 0.858399
vt 0.302134 0.489752
vt 0.239887 0.860468
vt 0.314462 0.491822
vt 0.252215 0.862538
vt 0.326789 0.493892
vt 0.264541 0.864607
vt 0.339117 0.495961
vt 0.276859 0.866673
vt 0.351444 0.498031
vt 0.289126 0.868712
vt 0.480726 0.175326
vt 0.502920 0.218884
vt 0.354317 0.260918
vt 0.446159 0.140759
vt 0.402601 0.118565
vt 0.354317 0.110917
vt 0.306033 0.118565
vt 0.262476 0.140759
vt 0.227908 0.175326
vt 0.205715 0.218884
vt 0.198067 0.267168
vt 0.205715 0.315452
vt 0.227908 0.359009
vt 0.262476 0.393577
vt 0.306033 0.415770
vt 0.354317 0.423418
vt 0.402601 0.415770
vt 0.446159 0.393577
vt 0.480726 0.359009
vt 0.502920 0.315452
vt 0.510567 0.267168
vt 0.629818 0.342288
vt 0.048206 0.342288
vt 0.599207 0.342288
vt 0.568596 0.342288
vt 0.537984 0.342288
vt 0.507373 0.342288
vt 0.476762 0.342288
vt 0.446151 0.342288
vt 0.415540 0.342288
vt 0.384928 0.342288
vt 0.354317 0.342288
vt 0.323706 0.342288
vt 0.293095 0.342288
vt 0.262484 0.342288
vt 0.231873 0.342288
vt 0.201261 0.342288
vt 0.170650 0.342288
vt 0.140039 0.342288
vt 0.109428 0.342288
vt 0.078817 0.342288
vn 0.939386 0.156183 -0.305224
vn 0.799089 0.156183 -0.580572
vn 0.729467 0.432424 -0.529989
vn 0.857540 0.432424 -0.278631
vn 0.580572 0.156183 -0.799089
vn 0.529989 0.432424 -0.729467
vn 0.305225 0.156183 -0.939385
vn 0.278631 0.432424 -0.857540
vn -0.000000 0.156183 -0.987728
vn -0.000000 0.432424 -0.901671
vn -0.305225 0.156183 -0.939385
vn -0.278632 0.432424 -0.857540
vn -0.580572 0.156183 -0.799089
vn -0.529989 0.432424 -0.729467
vn -0.799089 0.156183 -0.580572
vn -0.729467 0.432424 -0.529989
vn -0.939385 0.156183 -0.305225
vn -0.857540 0.432423 -0.278632
vn -0.987728 0.156182 0.000000
vn -0.901671 0.432423 -0.000000
vn -0.939385 0.156182 0.305225
vn -0.857540 0.432423 0.278632
vn -0.799089 0.156183 0.580572
vn -0.729467 0.432423 0.529989
vn -0.580572 0.156183 0.799089
vn -0.529989 0.432424 0.729467
vn -0.305225 0.156183 0.939385
vn -0.278632 0.432424 0.857540
vn -0.000000 0.156183 0.987728
vn 0.000000 0.432424 0.901671
vn 0.305225 0.156183 0.939385
vn 0.278632 0.432424 0.857540
vn 0.580572 0.156183 0.799089
vn 0.529989 0.432423 0.729467
vn 0.799089 0.156183 0.580572
vn 0.729467 0.432423 0.529989
vn 0.939385 0.156183 0.305225
vn 0.857540 0.432424 0.278632
vn 0.987728 0.156184 0.000001
vn 0.901671 0.432424 0.000001
vn 0.553365 0.729485 -0.402043
vn 0.650520 0.729485 -0.211366
vn 0.402043 0.729485 -0.553365
vn 0.211367 0.729485 -0.650520
vn -0.000000 0.729485 -0.683997
vn -0.211367 0.729485 -0.650520
vn -0.402044 0.729485 -0.553365
vn -0.553365 0.729485 -0.402043
vn -0.650520 0.729485 -0.211367
vn -0.683997 0.729485 -0.000000
vn -0.650520 0.729485 0.211367
vn -0.553365 0.729485 0.402044
vn -0.402043 0.729485 0.553366
vn -0.211367 0.729485 0.650520
vn 0.000000 0.729485 0.683997
vn 0.211367 0.729485 0.650520
vn 0.402044 0.729485 0.553365
vn 0.553365 0.729485 0.402044
vn 0.650520 0.729485 0.211367
vn 0.683997 0.729485 0.000001
vn 0.393376 0.873826 -0.285805
vn 0.462442 0.873825 -0.150256
vn 0.285804 0.873825 -0.393376
vn 0.150256 0.873825 -0.462442
vn -0.000000 0.873825 -0.486240
vn -0.150256 0.873825 -0.462441
vn -0.285805 0.873825 -0.393376
vn -0.393376 0.873825 -0.285805
vn -0.462442 0.873825 -0.150256
vn -0.486240 0.873825 -0.000000
vn -0.462442 0.873825 0.150256
vn -0.393376 0.873825 0.285805
vn -0.285805 0.873825 0.393376
vn -0.150256 0.873825 0.462442
vn 0.000000 0.873825 0.486240
vn 0.150256 0.873825 0.462442
vn 0.285805 0.873825 0.393376
vn 0.393376 0.873825 0.285805
vn 0.462442 0.873825 0.150256
vn 0.486240 0.873825 0.000000
vn -0.000000 1.000000 0.000000
vn 0.000000 1.000000 -0.000000
vn -0.000000 1.000000 0.000000
vn -0.000000 1.000000 0.000000
vn -0.000000 1.000000 0.000000
vn 0.000000 1.000000 0.000000
vn 0.000000 1.000000 0.000000
vn 0.000000 1.000000 0.000000
vn 0.000000 1.000000 0.000000
vn 0.000000 1.000000 0.000000
vn 0.000000 1.000000 0.000000
vn 0.000000 1.000000 -0.000000
vn 0.000000 1.000000 -0.000000
vn 0.000000 1.000000 -0.000000
vn 0.000000 1.000000 -0.000000
vn 0.000000 1.000000 -0.000000
vn -0.000000 1.000000 -0.000000
vn -0.000000 1.000000 -0.000000
vn -0.000000 1.000000 -0.000000
vn -0.000000 1.000000 -0.000000
vn -0.000000 1.000000 -0.000000
vn 0.000000 -1.000000 -0.000000
vn 0.000000 -1.000000 -0.000000
vn -0.000000 -1.000000 -0.000000
vn -0.000000 -1.000000 -0.000000
vn -0.000000 -1.000000 -0.000000
vn -0.000000 -1.000000 -0.000000
vn -0.000000 -1.000000 -0.000000
vn -0.000000 -1.000000 -0.000000
vn 0.000000 -1.000000 0.000000
vn 0.000000 -1.000000 -0.000000
vn 0.000000 -1.000000 -0.000000
vn 0.000000 -1.000000 0.000000
vn -0.000000 -1.000000 0.000000
vn -0.000000 -1.000000 0.000000
vn 0.000000 -1.000000 0.000000
vn 0.000000 -1.000000 0.000000
vn 0.000000 -1.000000 0.000000
vn 0.000000 -1.000000 0.000000
vn 0.000000 -1.000000 0.000000
vn 0.000000 -1.000000 0.000000
vn 0.000000 -1.000000 0.000000
vn 0.000000 -1.000000 0.000000
vn -0.000000 -1.000000 0.000000
vn -0.000000 -1.000000 0.000000
vn -0.000000 -1.000000 0.000000
vn -0.000000 -1.000000 0.000000
vn -0.000000 -1.000000 0.000000
vn -0.000000 -1.000000 0.000000
vn -0.000000 -1.000000 -0.000000
vn -0.000000 -1.000000 -0.000000
vn -0.000000 -1.000000 -0.000000
vn -0.000000 -1.000000 -0.000000
vn -0.000000 -1.000000 -0.000000
vn -0.000000 -1.000000 -0.000000
vn 0.000000 -1.000000 0.000000
vn 0.000000 -1.000000 0.000000
vn 0.000000 -1.000000 -0.000000
vn 0.000000 -1.000000 -0.000000
vn 0.000000 -1.000000 -0.000000
vn 0.000000 -1.000000 -0.000000
vn 0.947991 -0.080228 -0.308020
vn 0.806409 -0.080228 -0.585891
vn 0.806409 -0.080228 -0.585891
vn 0.947991 -0.080228 -0.308020
vn 0.585890 -0.080228 -0.806409
vn 0.585890 -0.080228 -0.806409
vn 0.308021 -0.080228 -0.947991
vn 0.308021 -0.080228 -0.947991
vn -0.000000 -0.080228 -0.996777
vn -0.000000 -0.080228 -0.996777
vn -0.308021 -0.080228 -0.947991
vn -0.308021 -0.080228 -0.947991
vn -0.585891 -0.080228 -0.806409
vn -0.585891 -0.080228 -0.806409
vn -0.806409 -0.080228 -0.585890
vn -0.806409 -0.080228 -0.585890
vn -0.947991 -0.080228 -0.308021
vn -0.947991 -0.080228 -0.308021
vn -0.996777 -0.080228 0.000000
vn -0.996777 -0.080228 0.000000
vn -0.947991 -0.080228 0.308021
vn -0.947991 -0.080228 0.308021
vn -0.806409 -0.080228 0.585891
vn -0.806409 -0.080228 0.585891
vn -0.585890 -0.080228 0.806409
vn -0.585890 -0.080228 0.806409
vn -0.308021 -0.080228 0.947991
vn -0.308021 -0.080228 0.947991
vn 0.000000 -0.080228 0.996777
vn 0.000000 -0.080228 0.996777
vn 0.308021 -0.080228 0.947991
vn 0.308021 -0.080228 0.947991
vn 0.585891 -0.080228 0.806409
vn 0.585891 -0.080228 0.806409
vn 0.806409 -0.080228 0.585891
vn 0.806409 -0.080228 0.585891
vn 0.947991 -0.080228 0.308021
vn 0.947991 -0.080228 0.308021
vn 0.996777 -0.080228 0.000001
vn 0.996777 -0.080228 0.000001
vn 0.789854 -0.216359 -0.573863
vn 0.928530 -0.216359 -0.301696
vn -0.000001 -1.000000 -0.000006
vn 0.573863 -0.216359 -0.789855
vn 0.301698 -0.216359 -0.928530
vn -0.000000 -0.216359 -0.976314
vn -0.301698 -0.216359 -0.928530
vn -0.573863 -0.216359 -0.789854
vn -0.789855 -0.216359 -0.573863
vn -0.928530 -0.216359 -0.301697
vn -0.976314 -0.216359 0.000000
vn -0.928530 -0.216359 0.301698
vn -0.789854 -0.216359 0.573863
vn -0.573863 -0.216359 0.789855
vn -0.301698 -0.216359 0.928530
vn 0.000000 -0.216359 0.976314
vn 0.301698 -0.216359 0.928530
vn 0.573863 -0.216359 0.789854
vn 0.789854 -0.216359 0.573863
vn 0.928530 -0.216359 0.301698
vn 0.976314 -0.216359 0.000001
s 1
g pSphere2
usemtl lambert2SG
f 1/1/1 2/2/2 22/23/3 21/22/4
f 2/2/2 3/3/5 23/24/6 22/23/3
f 3/3/5 4/4/7 24/25/8 23/24/6
f 4/4/7 5/5/9 25/26/10 24/25/8
f 5/5/9 6/6/11 26/27/12 25/26/10
f 6/6/11 7/7/13 27/28/14 26/27/12
f 7/7/13 8/8/15 28/29/16 27/28/14
f 8/8/15 9/9/17 29/30/18 28/29/16
f 9/9/17 10/10/19 30/31/20 29/30/18
f 10/10/19 11/11/21 31/32/22 30/31/20
f 11/11/21 12/12/23 32/33/24 31/32/22
f 12/12/23 13/13/25 33/34/26 32/33/24
f 13/13/25 14/14/27 34/35/28 33/34/26
f 14/14/27 15/15/29 35/36/30 34/35/28
f 15/15/29 16/16/31 36/37/32 35/36/30
f 16/16/31 17/17/33 37/38/34 36/37/32
f 17/17/33 18/18/35 38/39/36 37/38/34
f 18/18/35 19/19/37 39/40/38 38/39/36
f 19/19/37 20/20/39 40/41/40 39/40/38
f 20/20/39 1/21/1 21/42/4 40/41/40
f 22/23/3 42/44/41 41/43/42 21/22/4
f 23/24/6 43/45/43 42/44/41 22/23/3
f 24/25/8 44/46/44 43/45/43 23/24/6
f 25/26/10 45/47/45 44/46/44 24/25/8
f 26/27/12 46/48/46 45/47/45 25/26/10
f 27/28/14 47/49/47 46/48/46 26/27/12
f 28/29/16 48/50/48 47/49/47 27/28/14
f 29/30/18 49/51/49 48/50/48 28/29/16
f 30/31/20 50/52/50 49/51/49 29/30/18
f 31/32/22 51/53/51 50/52/50 30/31/20
f 32/33/24 52/54/52 51/53/51 31/32/22
f 33/34/26 53/55/53 52/54/52 32/33/24
f 34/35/28 54/56/54 53/55/53 33/34/26
f 35/36/30 55/57/55 54/56/54 34/35/28
f 36/37/32 56/58/56 55/57/55 35/36/30
f 37/38/34 57/59/57 56/58/56 36/37/32
f 38/39/36 58/60/58 57/59/57 37/38/34
f 39/40/38 59/61/59 58/60/58 38/39/36
f 40/41/40 60/62/60 59/61/59 39/40/38
f 21/42/4 41/63/42 60/62/60 40/41/40
f 42/44/41 62/188/61 61/170/62 41/43/42
f 43/45/43 63/187/63 62/188/61 42/44/41
f 44/46/44 64/186/64 63/187/63 43/45/43
f 45/47/45 65/185/65 64/186/64 44/46/44
f 46/48/46 66/184/66 65/185/65 45/47/45
f 47/49/47 67/183/67 66/184/66 46/48/46
f 48/50/48 68/182/68 67/183/67 47/49/47
f 49/51/49 69/181/69 68/182/68 48/50/48
f 50/52/50 70/180/70 69/181/69 49/51/49
f 51/53/51 71/179/71 70/180/70 50/52/50
f 52/54/52 72/178/72 71/179/71 51/53/51
f 53/55/53 73/177/73 72/178/72 52/54/52
f 54/56/54 74/176/74 73/177/73 53/55/53
f 55/57/55 75/175/75 74/176/74 54/56/54
f 56/58/56 76/174/76 75/175/75 55/57/55
f 57/59/57 77/173/77 76/174/76 56/58/56
f 58/60/58 78/172/78 77/173/77 57/59/57
f 59/61/59 79/171/79 78/172/78 58/60/58
f 60/62/60 80/169/80 79/171/79 59/61/59
f 41/63/42 61/84/62 80/169/80 60/62/60
s 2
f 62/65/81 81/85/82 61/64/83
f 63/66/84 81/85/82 62/65/81
f 64/67/85 81/85/82 63/66/84
f 65/68/86 81/85/82 64/67/85
f 66/69/87 81/85/82 65/68/86
f 67/70/88 81/85/82 66/69/87
f 68/71/89 81/85/82 67/70/88
f 69/72/90 81/85/82 68/71/89
f 70/73/91 81/85/82 69/72/90
f 71/74/92 81/85/82 70/73/91
f 72/75/93 81/85/82 71/74/92
f 73/76/94 81/85/82 72/75/93
f 74/77/95 81/85/82 73/76/94
f 75/78/96 81/85/82 74/77/95
f 76/79/97 81/85/82 75/78/96
f 77/80/98 81/85/82 76/79/97
f 78/81/99 81/85/82 77/80/98
f 79/82/100 81/85/82 78/81/99
f 80/83/101 81/85/82 79/82/100
f 61/64/83 81/85/82 80/83/101
s 3
f 4/4/102 101/105/103 82/86/104 5/5/105
f 9/9/106 86/90/107 87/91/108 10/10/109
f 96/100/110 97/101/111 20/20/112 19/19/113
f 14/14/114 91/95/115 92/96/116 15/15/117
f 92/96/116 93/97/118 16/16/119 15/15/117
f 94/98/120 95/99/121 18/18/122 17/17/123
f 95/99/121 96/100/110 19/19/113 18/18/122
f 93/97/118 94/98/120 17/17/123 16/16/119
f 12/12/124 89/93/125 90/94/126 13/13/127
f 13/13/127 90/94/126 91/95/115 14/14/114
f 10/10/109 87/91/108 88/92/128 11/11/129
f 11/11/129 88/92/128 89/93/125 12/12/124
f 7/7/130 84/88/131 85/89/132 8/8/133
f 8/8/133 85/89/132 86/90/107 9/9/106
f 5/5/105 82/86/104 83/87/134 6/6/135
f 6/6/135 83/87/134 84/88/131 7/7/130
f 2/2/136 99/103/137 100/104/138 3/3/139
f 3/3/139 100/104/138 101/105/103 4/4/102
f 97/101/111 98/102/140 1/21/141 20/20/112
f 2/2/136 1/21/141 98/102/140 99/103/137
s 10
f 102/106/142 103/107/143 99/108/144 98/109/145
f 103/107/143 104/110/146 100/111/147 99/108/144
f 104/110/146 105/112/148 101/113/149 100/111/147
f 105/112/148 106/114/150 82/115/151 101/113/149
f 106/114/150 107/116/152 83/117/153 82/115/151
f 107/116/152 108/118/154 84/119/155 83/117/153
f 108/118/154 109/120/156 85/121/157 84/119/155
f 109/120/156 110/122/158 86/123/159 85/121/157
f 110/122/158 111/124/160 87/125/161 86/123/159
f 111/124/160 112/126/162 88/127/163 87/125/161
f 112/126/162 113/128/164 89/129/165 88/127/163
f 113/128/164 114/130/166 90/131/167 89/129/165
f 114/130/166 115/132/168 91/133/169 90/131/167
f 115/132/168 116/134/170 92/135/171 91/133/169
f 116/134/170 117/136/172 93/137/173 92/135/171
f 117/136/172 118/138/174 94/139/175 93/137/173
f 118/138/174 119/140/176 95/141/177 94/139/175
f 119/140/176 120/142/178 96/143/179 95/141/177
f 120/142/178 121/144/180 97/145/181 96/143/179
f 121/144/180 102/146/142 98/147/145 97/145/181
s 11
f 103/148/182 102/149/183 122/150/184
f 104/151/185 103/148/182 122/150/184
f 105/152/186 104/151/185 122/150/184
f 106/153/187 105/152/186 122/150/184
f 107/154/188 106/153/187 122/150/184
f 108/155/189 107/154/188 122/150/184
f 109/156/190 108/155/189 122/150/184
f 110/157/191 109/156/190 122/150/184
f 111/158/192 110/157/191 122/150/184
f 112/159/193 111/158/192 122/150/184
f 113/160/194 112/159/193 122/150/184
f 114/161/195 113/160/194 122/150/184
f 115/162/196 114/161/195 122/150/184
f 116/163/197 115/162/196 122/150/184
f 117/164/198 116/163/197 122/150/184
f 118/165/199 117/164/198 122/150/184
f 119/166/200 118/165/199 122/150/184
f 120/167/201 119/166/200 122/150/184
f 121/168/202 120/167/201 122/150/184
f 102/149/183 121/168/202 122/150/184
